<?xml version="1.0" encoding="utf-8"?>
<!-- Generator: Adobe Illustrator 22.1.0, SVG Export Plug-In . SVG Version: 6.00 Build 0)  -->
<svg version="1.1" xmlns="http://www.w3.org/2000/svg" xmlns:xlink="http://www.w3.org/1999/xlink" x="0px" y="0px"
	 viewBox="0 0 500 450" style="enable-background:new 0 0 500 450;" xml:space="preserve">
<style type="text/css">
	.st0{display:none;}
	.st1{fill:#231816;}
</style>
<g id="Layer_1" class="st0">
	
		<image style="display:inline;overflow:visible;" width="658" height="856" xlink:href="mascot.png"  transform="matrix(1 0 0 1 -79 -203)">
	</image>
</g>
<g id="Layer_5">
</g>
<g id="Layer_6">
</g>
<g id="Layer_3" class="st0">
</g>
<g id="Layer_4" class="st0">
</g>
<g id="Layer_2">
	<g>
		<path class="st1" d="M171.8,231.4c-0.5-0.5-0.9-0.9-1.2-1.1c-19.9-4.8-39.8-9.7-59.6-14.5l-2,0.8c-1.4,0.5-3.9,1.7-6.2,4
			c-3,3-4,6.2-4.2,7.1c-0.4,1.3-1.7,6.2,0.9,11.4c2.5,5,7.2,7,9,7.8c0.9,0.4,1.6,0.6,2.1,0.8l11,0.8c-0.8,0.4-2,1-3.2,1.9
			c-1.9,1.2-4.4,2.8-6.4,5c-2.6,2.9-3.6,6.1-4.2,8.4c-1.4,4.8-1.1,8.7-0.9,11.9c0.2,2.5,0.5,5.8,2,9.8c2.1,5.5,5.3,8.9,7.2,10.9
			c2.6,2.7,5.5,5.7,10.4,7.6c6.5,2.6,12.4,1.5,15.4,1c2-0.4,5.3-1,8.9-3c3.3-1.9,5.3-4.1,7.4-6.2c2.4-2.5,4.4-4.8,6-8.2
			c1.6-3.5,1.7-6.5,2-12.5c0.4-7.8-0.9-11.5-1.6-13.2c-0.4-1-0.8-1.8-1.1-2.4h2.1c1,0,2.6-0.2,4.2-0.9c5-2.2,6.6-7.7,7.1-9.6
			c0.4-1.5,1.5-5.5,0-9.9C175.3,234.9,172.8,232.4,171.8,231.4z"/>
		<path class="st1" d="M321.7,220.5c-2.3-2.3-4.8-3.5-6.2-4l-2-0.8c-19.9,4.8-39.8,9.7-59.6,14.5c-0.3,0.3-0.8,0.6-1.2,1.1
			c-1,1-3.6,3.5-4.9,7.2c-1.5,4.4-0.4,8.4,0,9.9c0.5,1.9,2.1,7.4,7.1,9.6c1.7,0.7,3.2,0.9,4.2,0.9h2.1c-0.3,0.5-0.7,1.4-1.1,2.4
			c-0.7,1.7-2,5.4-1.6,13.2c0.3,6,0.4,9,2,12.5c1.6,3.5,3.6,5.7,6,8.2c2,2.2,4,4.4,7.4,6.2c3.6,2,6.8,2.6,8.9,3
			c3,0.5,8.9,1.6,15.4-1c4.9-1.9,7.8-5,10.4-7.6c1.9-2,5.1-5.4,7.2-10.9c1.5-4,1.8-7.3,2-9.8c0.3-3.2,0.5-7.1-0.9-11.9
			c-0.7-2.3-1.6-5.4-4.2-8.4c-2-2.2-4.5-3.8-6.4-5c-1.3-0.8-2.4-1.4-3.2-1.9l11-0.8c0.5-0.2,1.3-0.4,2.1-0.8c1.8-0.8,6.5-2.7,9-7.8
			c2.6-5.1,1.2-10.1,0.9-11.4C325.7,226.7,324.7,223.5,321.7,220.5z"/>
		<path class="st1" d="M480,132.5c-12.7-7.1-25.2-7.8-29-8c-19.6-1.1-53.3-3-54-8c-0.3-2.6,8.2-3.4,18-12c1.1-1,17.6-15.7,14-25
			c-3.6-9.5-26.6-9.4-40-7c-11.8,2.2-20.8,6.9-26.4,10.6c-3.1-3.5-13.1-14.4-28.6-25.6c-7.7-5.5-21.7-14.6-41-22
			c-24.8-9.5-45.4-11-60-12c-23.5-1.6-41.3,0.6-52,2c-19.5,2.5-37.5,4.8-59,14c-6.4,2.7-34.6,15.2-61,44c-20.7,22.6-30.9,44.8-35,55
			c-8.3,20.5-10.7,37.2-13,54c-4,28.9-2.7,51.3-2,60c2,24.9,6.9,43,8,47c2.8,10.1,7.1,25.2,17,43c4.7,8.6,11.2,20,23,32
			c1.5,1.6-0.1-0.1,25,20c9.2,7.4,17.3,13.9,30,18c1.7,0.5,3.1,0.9,4,1.2c14.6,4.1,66.3,17.7,121,14.8c18.2-0.9,41.1-2.3,68-14
			c25.7-11.1,42.7-26.3,50-33c8.6-7.8,19.8-18.2,30-35c10.6-17.5,14.6-32.9,18-46c3.8-14.6,5-25.2,7-44c2.5-23.2,3.8-34.8,2-50
			c-0.4-3.1-1.6-12.6-9.1-35.2c8.3,1.4,17.1,1.2,17.1,1.2c10.6-0.3,18.4-2.5,27-5c14.6-4.2,22.9-8.8,25-10c8.2-4.7,16.3-9.3,16-15
			C489.9,141.6,489.5,137.8,480,132.5z M359,268.5c-0.9,11.8-5.7,20.1-8,24c-1.8,3-10,16.4-34,29c-20.1,10.6-37.6,13.5-54,16
			c-25.4,3.9-45.2,2.9-62,2c-9.5-0.5-23-2.3-50-6c-23-3.1-31.5-4.8-42-10c-8.9-4.4-15.1-9.4-22-15c-10.6-8.5-16.5-13.4-20-22
			c-2.5-6-2.7-11.1-3-18c-0.3-7.5-0.7-15.9,3-25c2.4-5.8,6.6-10.5,15-20c5.3-5.9,9.5-10.7,16-16c9.7-7.9,18.4-12.2,24-15
			c14.4-7.1,26.5-10,35-12c13.6-3.2,24-4.1,34-5c10.3-0.9,20.9-1.8,35-1c3.5,0.2,18.6,1.2,38,6c16,4,27.8,8.8,33,11
			c9.5,4.1,16.5,7.1,25,13c13.4,9.3,20.9,19.2,23,22c3.7,5,8,10.9,11,20C357.3,250.4,359.8,258.2,359,268.5z"/>
	</g>
</g>
</svg>
